<svg xmlns="http://www.w3.org/2000/svg" width="180" height="180" viewBox="0 0 2048 2048" version="1.1">
	<path d="M 1045.369 718.600 C 1013.472 722.363, 982.893 731.603, 954.385 746.091 C 936.362 755.252, 924.082 763.618, 910.214 776.186 L 903.798 782 864.136 782 L 824.473 782 810.500 768 L 796.527 754 754.696 754 L 712.866 754 709.565 750.500 C 703.439 744.005, 694.766 746.502, 693.360 755.166 C 692.879 758.135, 693.263 759.263, 695.675 761.963 C 697.996 764.560, 699.336 765.200, 702.451 765.200 C 705.613 765.200, 706.963 764.532, 709.730 761.600 L 713.126 758 753.829 758 L 794.533 758 805.947 769.447 C 812.225 775.743, 817.742 780.660, 818.206 780.373 C 818.670 780.086, 818.926 780.447, 818.775 781.176 C 818.624 781.904, 819.096 782.376, 819.824 782.225 C 820.553 782.074, 820.895 782.361, 820.585 782.862 C 818.836 785.693, 823.440 786.054, 860.886 786.025 C 881.849 786.009, 899 786.372, 899 786.832 C 899 787.293, 897.763 788.799, 896.250 790.180 C 894.737 791.560, 891.101 795.235, 888.170 798.345 L 882.840 804 819.353 804 L 755.866 804 752.565 800.500 C 749.846 797.617, 748.548 797, 745.205 797 C 742 797, 740.704 797.560, 739.051 799.662 C 735.867 803.710, 735.451 806.824, 737.569 810.757 C 740.908 816.958, 748.160 817.417, 753.271 811.752 L 756.042 808.680 817.021 808.207 C 857.896 807.889, 878 808.067, 878 808.747 C 878 809.305, 874.460 815.103, 870.133 821.631 C 849.949 852.082, 836.316 886.634, 832.503 917 C 832.192 919.475, 831.699 922.699, 831.408 924.165 C 831.117 925.630, 830.539 932.259, 830.125 938.896 C 829.710 945.533, 829.148 951.185, 828.877 951.457 C 828.395 951.938, 791.392 952.278, 759.695 952.093 L 743.889 952 741.534 946.750 C 740.238 943.862, 736.711 935.875, 733.696 929 C 730.681 922.125, 723.872 906.600, 718.565 894.500 C 713.259 882.400, 707.056 868.342, 704.782 863.259 C 702.509 858.177, 700.900 853.767, 701.207 853.459 C 701.515 853.152, 724.489 852.920, 752.261 852.945 L 802.755 852.990 806.760 856.995 C 809.988 860.223, 811.481 861, 814.459 861 C 822.862 861, 827.399 850.054, 821.328 844.428 C 819.858 843.066, 817.679 841.706, 816.484 841.407 C 812.605 840.433, 807.629 842.409, 805.500 845.767 L 803.500 848.923 751 848.946 L 698.500 848.969 695.869 842.735 C 694.422 839.306, 687.732 824.125, 681.002 809 C 666.526 776.466, 655.378 751.129, 649.763 738 C 647.528 732.775, 645.262 727.938, 644.727 727.250 C 643.971 726.277, 631.686 726, 589.336 726 L 534.916 726 531.863 732.750 C 530.184 736.462, 524.617 749.175, 519.491 761 C 514.366 772.825, 506.278 791.275, 501.517 802 C 496.757 812.725, 491.817 824.200, 490.540 827.500 C 489.262 830.800, 483.383 844.300, 477.476 857.500 C 471.568 870.700, 462.572 891.175, 457.485 903 C 452.398 914.825, 445.533 930.575, 442.229 938 C 438.926 945.425, 432.983 958.925, 429.023 968 C 422.130 983.795, 407.258 1017.449, 398.753 1036.500 C 396.543 1041.450, 393.040 1049.550, 390.969 1054.500 C 388.897 1059.450, 386.065 1065.986, 384.676 1069.024 C 380.069 1079.092, 366.840 1109.309, 361.481 1122 C 358.579 1128.875, 351.220 1145.696, 345.128 1159.380 C 339.036 1173.064, 333.784 1185.105, 333.456 1186.139 C 332.877 1187.963, 334.444 1188.010, 388.072 1187.758 L 443.284 1187.500 446.997 1178.500 C 455.259 1158.468, 472.113 1117.975, 475.507 1110 C 477.496 1105.325, 479.843 1099.700, 480.720 1097.500 C 481.598 1095.300, 482.750 1092.938, 483.281 1092.250 C 484.694 1090.418, 694.278 1090.418, 695.781 1092.250 C 697.467 1094.306, 705.884 1115.955, 705.164 1116.388 C 704.799 1116.608, 691.735 1116.826, 676.134 1116.872 L 647.768 1116.956 639.265 1125.478 C 634.588 1130.165, 630.253 1134.037, 629.631 1134.083 C 629.009 1134.128, 603.524 1134.194, 572.997 1134.230 L 517.494 1134.294 513.847 1130.647 C 510.852 1127.652, 509.476 1127, 506.152 1127 C 500.861 1127, 497.023 1130.410, 496.307 1135.745 C 495.272 1143.467, 504.257 1149.324, 511.014 1145.332 C 512.656 1144.362, 514 1143.184, 514 1142.713 C 514 1142.242, 514.650 1141.208, 515.443 1140.414 C 516.666 1139.192, 525.664 1138.957, 574.167 1138.886 L 631.448 1138.801 639.474 1131.029 C 643.888 1126.754, 648.435 1122.775, 649.577 1122.186 C 650.896 1121.506, 661.893 1121.085, 679.713 1121.032 L 707.772 1120.949 712.333 1132.225 C 714.843 1138.426, 721.179 1153.400, 726.415 1165.500 L 735.935 1187.500 791.967 1187.758 C 822.785 1187.900, 848 1187.684, 848 1187.277 C 848 1186.870, 845.455 1181.199, 842.345 1174.674 C 838.459 1166.524, 837.048 1162.588, 837.836 1162.101 C 838.467 1161.711, 848.099 1161.562, 859.242 1161.770 L 879.500 1162.148 882.194 1165.074 C 883.675 1166.683, 885.250 1168.050, 885.694 1168.112 C 892.177 1169.011, 892.939 1168.859, 895.915 1166.080 C 902.156 1160.249, 898.458 1150, 890.113 1150 C 886.906 1150, 883.501 1151.937, 881.810 1154.724 L 880.249 1157.297 858.052 1157.504 C 840.805 1157.665, 835.560 1157.417, 834.537 1156.394 C 833.813 1155.670, 831.082 1149.997, 828.469 1143.789 C 823.408 1131.766, 822.928 1130.676, 812.478 1107.500 C 808.759 1099.250, 803.575 1087.550, 800.958 1081.500 C 798.342 1075.450, 793.407 1064.200, 789.992 1056.500 C 786.576 1048.800, 783.552 1041.481, 783.272 1040.235 L 782.761 1037.970 813.037 1038.235 L 843.312 1038.500 847.455 1048.500 C 861.172 1081.615, 886.158 1115.309, 913.430 1137.468 C 934.434 1154.536, 958.072 1168.384, 980.911 1177.004 C 1005.417 1186.252, 1019.418 1189.483, 1052.500 1193.525 C 1060.815 1194.541, 1087.946 1194.777, 1099 1193.929 C 1108.908 1193.170, 1121.594 1191.482, 1132.500 1189.473 C 1166.899 1183.135, 1209.495 1161.746, 1236.500 1137.250 C 1249.679 1125.296, 1263 1111.657, 1263 1110.119 C 1263 1109.508, 1258.872 1105.069, 1253.827 1100.254 C 1248.782 1095.439, 1238.995 1086.065, 1232.077 1079.422 C 1225.160 1072.780, 1217.250 1065.355, 1214.500 1062.922 C 1208.517 1057.630, 1209.970 1058.986, 1201.258 1050.568 L 1194.083 1043.636 1181.792 1055.598 C 1154.105 1082.540, 1124.587 1096.379, 1089.963 1098.648 L 1080 1099.301 1080 1065.709 C 1080 1043.078, 1080.347 1031.904, 1081.062 1031.461 C 1081.674 1031.083, 1082.067 1027.771, 1081.989 1023.652 C 1081.915 1019.719, 1081.887 1015.938, 1081.927 1015.250 C 1081.977 1014.399, 1083.892 1014, 1087.933 1014 C 1094.881 1014, 1095.046 1014.248, 1094.572 1024 C 1094.399 1027.575, 1094.624 1030.966, 1095.073 1031.536 C 1095.522 1032.105, 1096.027 1043.130, 1096.195 1056.036 C 1096.494 1079.010, 1096.544 1079.506, 1098.603 1079.800 C 1100.685 1080.098, 1100.708 1079.864, 1100.906 1056.339 C 1101.016 1043.270, 1101.511 1032.089, 1102.007 1031.491 C 1102.503 1030.894, 1103.042 1026.827, 1103.204 1022.453 L 1103.500 1014.500 1109.750 1014.202 L 1116 1013.905 1116 1022.393 C 1116 1027.062, 1116.450 1031.160, 1117 1031.500 C 1117.550 1031.840, 1118.045 1034.229, 1118.100 1036.809 C 1118.155 1039.389, 1118.492 1042.480, 1118.850 1043.678 C 1119.671 1046.429, 1138.660 1066, 1140.508 1066 C 1144.055 1066, 1142.455 1063.209, 1133.940 1054.545 C 1128.868 1049.385, 1124.338 1044.563, 1123.874 1043.831 C 1122.718 1042.007, 1122.778 1032.622, 1123.953 1031.447 C 1124.478 1030.922, 1125.040 1026.933, 1125.203 1022.583 L 1125.500 1014.672 1128.840 1013.551 C 1133.469 1011.996, 1136.648 1008.651, 1137.688 1004.238 L 1138.570 1000.500 1146.985 1000.206 C 1151.613 1000.045, 1155.901 999.497, 1156.512 998.990 C 1157.124 998.482, 1169.886 997.979, 1184.873 997.870 L 1212.121 997.674 1218.865 1004.366 C 1222.574 1008.047, 1225.959 1010.707, 1226.388 1010.279 C 1226.816 1009.851, 1227.017 1010.009, 1226.833 1010.630 C 1226.650 1011.252, 1234.874 1020.109, 1245.110 1030.312 L 1263.720 1048.863 1263.240 1053.857 C 1262.819 1058.233, 1263.079 1059.170, 1265.334 1061.425 C 1267.330 1063.421, 1268.911 1064, 1272.366 1064 C 1276.150 1064, 1277.228 1063.518, 1279.510 1060.805 C 1281.673 1058.235, 1282.089 1056.936, 1281.639 1054.162 C 1280.764 1048.773, 1277.518 1046, 1272.083 1046 L 1267.514 1046 1241.318 1019.819 L 1215.123 993.637 1186.579 993.536 C 1165.597 993.462, 1157.713 993.113, 1156.818 992.218 C 1156.059 991.459, 1152.512 991, 1147.407 991 C 1138.405 991, 1138 990.720, 1138 984.500 C 1138 978.220, 1138.340 978, 1148.048 978 C 1152.907 978, 1157.160 977.550, 1157.500 977 C 1157.898 976.356, 1175.177 976, 1206.059 976 C 1243.737 976, 1254.003 975.732, 1254.015 974.750 C 1254.026 973.914, 1254.357 973.997, 1255.015 975 C 1255.891 976.333, 1256.109 976.333, 1256.985 975 C 1257.679 973.943, 1257.974 973.879, 1257.985 974.785 C 1258.015 977.343, 1262.199 973.803, 1279.827 956.304 L 1297.500 938.761 1336.583 938.631 L 1375.666 938.500 1379.368 941.750 C 1388.060 949.381, 1399.529 942.554, 1395.833 931.950 C 1394.844 929.113, 1390.297 926, 1387.143 926 C 1383.765 926, 1380.579 927.926, 1378.785 931.052 L 1377.093 934 1339.172 934 C 1318.315 934, 1299.731 934.297, 1297.875 934.660 C 1295.227 935.177, 1290.516 939.265, 1276 953.644 L 1257.500 971.969 1207.950 971.985 C 1177.693 971.994, 1158.027 971.627, 1157.442 971.042 C 1156.916 970.516, 1152.438 969.953, 1147.492 969.792 L 1138.500 969.500 1138.180 965.595 C 1138.005 963.448, 1138.126 960.635, 1138.449 959.345 C 1139.012 957.103, 1139.431 957, 1148.019 957 C 1153.340 957, 1157 956.592, 1157 956 C 1157 955.350, 1171.447 954.984, 1198.250 954.955 C 1228.164 954.922, 1240.249 954.579, 1242.226 953.705 C 1246.400 951.860, 1294.534 903.672, 1293.642 902.230 C 1293.376 901.800, 1320.460 901.382, 1353.829 901.303 C 1406.015 901.179, 1414.542 900.956, 1414.799 899.706 C 1414.979 898.830, 1414.112 898.063, 1412.622 897.779 C 1411.260 897.518, 1383.736 897.349, 1351.457 897.403 L 1292.770 897.500 1267.135 923.682 C 1251.807 939.337, 1240.493 950.111, 1238.996 950.479 C 1236.159 951.175, 1162.400 950.331, 1148.251 949.440 C 1137.889 948.788, 1137.521 948.458, 1138.180 940.405 L 1138.500 936.500 1146.994 936.206 C 1151.666 936.044, 1155.919 935.481, 1156.444 934.956 C 1157.013 934.387, 1170.757 934, 1190.406 934 L 1223.412 934 1249.231 908.250 L 1275.051 882.500 1317.123 882.291 C 1349.758 882.129, 1359.553 881.793, 1360.790 880.791 C 1361.996 879.814, 1362.201 879.804, 1361.633 880.750 C 1361.040 881.738, 1366.575 882, 1388.014 882 C 1413.318 882, 1415.124 881.882, 1414.806 880.250 C 1414.492 878.632, 1412.466 878.509, 1387.983 878.624 C 1373.417 878.692, 1359.588 878.962, 1357.250 879.224 C 1354.912 879.486, 1353 879.412, 1353 879.060 C 1353 878.317, 1276.816 877.974, 1274.024 878.704 C 1272.996 878.973, 1260.544 890.624, 1246.353 904.596 L 1220.551 930 1189.398 930 C 1162.926 930, 1158.058 929.775, 1157 928.500 C 1156.075 927.385, 1153.604 927, 1147.378 927 L 1139 927 1138.882 922.750 C 1138.749 917.986, 1138.973 915.723, 1139.645 915.033 C 1139.895 914.777, 1143.790 914.509, 1148.300 914.438 C 1152.810 914.367, 1157.175 914.035, 1158 913.701 C 1158.825 913.366, 1170.848 912.911, 1184.717 912.690 L 1209.933 912.288 1213.368 909.669 C 1219.329 905.122, 1262.516 860.857, 1262.167 859.651 C 1261.983 859.018, 1262.183 858.850, 1262.611 859.278 C 1263.039 859.706, 1266.144 857.327, 1269.510 853.990 L 1275.630 847.924 1325.646 847.712 L 1375.663 847.500 1379.199 851.250 C 1382.147 854.375, 1383.406 855, 1386.757 855 C 1391.517 855, 1394.696 852.725, 1395.840 848.500 C 1397.613 841.956, 1393.349 836, 1386.891 836 C 1383.458 836, 1382.234 836.585, 1379.562 839.502 L 1376.354 843.004 1326.094 843.019 C 1285.021 843.032, 1275.346 843.290, 1273.167 844.432 C 1269.543 846.331, 1263.830 852.405, 1264.200 853.967 C 1264.365 854.664, 1263.779 855.357, 1262.898 855.507 C 1260.553 855.906, 1252.874 863.987, 1253.648 865.240 C 1254.049 865.888, 1253.834 866.016, 1253.105 865.565 C 1252.332 865.087, 1244.183 872.551, 1230.348 886.410 L 1208.796 908 1183.457 908 C 1169.521 908, 1157.886 907.624, 1157.601 907.164 C 1157.317 906.704, 1153.263 906.502, 1148.591 906.713 L 1140.098 907.098 1137.968 902.148 C 1135.397 896.171, 1132.660 893.459, 1128 892.271 L 1124.500 891.378 1123.700 878.458 C 1123.259 871.352, 1123.131 864.630, 1123.415 863.519 C 1123.699 862.409, 1127.996 857.356, 1132.965 852.291 C 1137.934 847.227, 1142 842.389, 1142 841.541 C 1142 837.875, 1137.671 840.657, 1128.155 850.437 L 1118 860.875 1118 867.378 C 1118 870.955, 1117.550 874.160, 1117 874.500 C 1116.450 874.840, 1116 878.916, 1116 883.559 L 1116 892 1109.500 892 L 1103 892 1103 883.559 C 1103 878.916, 1102.550 874.840, 1102 874.500 C 1101.427 874.146, 1101 868.966, 1101 862.371 C 1101 851.020, 1100.969 850.865, 1098.759 851.180 C 1096.607 851.487, 1096.511 851.931, 1096.359 862.267 C 1096.272 868.188, 1095.889 873.813, 1095.508 874.767 C 1095.127 875.720, 1094.745 879.875, 1094.658 884 L 1094.500 891.500 1088.250 891.798 L 1082 892.095 1082 884.107 C 1082 879.713, 1081.550 875.840, 1081 875.500 C 1080.373 875.113, 1080 864.800, 1080 847.871 L 1080 820.861 1077.753 821.180 L 1075.505 821.500 1075.439 847 C 1075.402 861.025, 1075.023 873.705, 1074.596 875.178 C 1074.169 876.650, 1073.748 880.925, 1073.660 884.678 L 1073.500 891.500 1067 891.500 L 1060.500 891.500 1059.796 880 C 1059.409 873.675, 1058.959 861.525, 1058.796 853 C 1058.508 837.924, 1058.440 837.491, 1056.312 837.189 C 1054.147 836.880, 1054.120 837.060, 1053.600 855.189 C 1053.312 865.260, 1052.721 877.550, 1052.288 882.500 L 1051.500 891.500 1045.328 891.796 L 1039.155 892.091 1038.627 884.296 C 1038.337 880.008, 1037.739 873.020, 1037.299 868.767 L 1036.500 861.034 1025.604 850.104 C 1015.437 839.906, 1012 837.763, 1012 841.621 C 1012 842.395, 1016.542 847.491, 1022.092 852.946 L 1032.185 862.863 1031.601 869.182 C 1031.281 872.657, 1030.842 878.875, 1030.627 883 C 1030.412 887.125, 1030.183 890.837, 1030.118 891.250 C 1030.053 891.663, 1029.078 892, 1027.950 892 C 1022.767 892, 1017.944 896.582, 1016.247 903.120 L 1015.370 906.500 1006.659 906.649 C 1001.869 906.730, 997.398 907.208, 996.725 907.710 C 996.051 908.212, 994.487 908.539, 993.250 908.436 C 992.013 908.334, 989.603 908.194, 987.896 908.125 C 985.393 908.024, 982.799 906.063, 974.500 898 C 968.840 892.500, 963.711 888, 963.104 888 C 959.900 888, 962.978 892.783, 971.966 901.771 C 982.394 912.199, 983.864 913, 992.566 913 C 994.940 913, 997.135 913.409, 997.443 913.908 C 997.752 914.408, 1001.491 914.821, 1005.752 914.826 C 1010.014 914.832, 1014.063 914.873, 1014.750 914.918 C 1015.602 914.974, 1016 916.910, 1016 921 C 1016 926.012, 1015.712 927.015, 1014.250 927.093 C 1013.288 927.144, 1009.186 927.330, 1005.136 927.506 C 1001.086 927.683, 997.284 928.316, 996.686 928.914 C 996.051 929.549, 991.492 930, 985.700 930 L 975.800 930 972.414 926.614 C 970.399 924.599, 967.552 922.951, 965.384 922.544 C 962.285 921.963, 961.199 922.297, 958.120 924.781 C 953.097 928.834, 952.627 933.781, 956.862 938.016 C 961.268 942.422, 966.712 942.227, 971.303 937.500 L 974.702 934 985.792 934 C 992.107 934, 997.148 934.431, 997.500 935 C 997.840 935.550, 1002.141 936, 1007.059 936 L 1016 936 1016 941.941 C 1016 945.209, 1015.568 948.149, 1015.041 948.475 C 1014.513 948.801, 1010.238 949.082, 1005.541 949.099 C 1000.841 949.117, 997 949.558, 997 950.080 C 997 950.664, 985.354 950.927, 966.750 950.765 L 936.500 950.500 936.773 944.500 C 937.630 925.643, 943.877 903.037, 953.571 883.722 C 969.107 852.767, 998.581 828.266, 1033.011 817.688 C 1049.184 812.720, 1057.016 811.628, 1077 811.560 C 1102.244 811.473, 1109.262 812.507, 1127.742 819.029 C 1149.314 826.643, 1166.141 837.424, 1187.788 857.499 C 1191.796 861.216, 1195.396 863.928, 1195.788 863.526 C 1196.180 863.123, 1207.520 852.153, 1220.990 839.147 C 1260.746 800.759, 1262 799.496, 1262 797.854 C 1262 795.573, 1239.190 773.804, 1227.297 764.736 C 1213.338 754.092, 1200.953 746.680, 1185 739.423 C 1148.879 722.992, 1120.486 717.131, 1077.500 717.236 C 1065.950 717.264, 1051.491 717.878, 1045.369 718.600 M 1310 769.992 L 1310 814 1312.750 814.125 C 1314.263 814.194, 1356.225 814.368, 1406 814.513 C 1537.271 814.894, 1529.894 814.557, 1549.500 821.083 C 1568.450 827.392, 1581.050 838.029, 1589.081 854.500 C 1595.776 868.229, 1597.434 876.747, 1596.675 893.500 C 1596.033 907.681, 1595.334 910.993, 1590.764 921.500 C 1586.846 930.508, 1584.386 934.076, 1576.743 941.844 C 1569.184 949.525, 1560.501 954.745, 1548.500 958.822 C 1528.593 965.586, 1532.627 965.376, 1415.750 965.748 L 1310 966.085 1309.931 971.043 C 1309.892 973.769, 1309.861 981.625, 1309.861 988.500 C 1309.861 995.375, 1309.892 1043.075, 1309.931 1094.500 L 1310 1188 1363 1188 L 1416 1188 1415.999 1167.250 C 1415.995 1089.879, 1416.334 1053.912, 1417.070 1053.457 C 1418.327 1052.680, 1446.049 1052.716, 1446.829 1053.496 C 1447.196 1053.863, 1447.383 1080.034, 1447.244 1111.654 L 1446.990 1169.144 1443.362 1172.565 C 1440.042 1175.696, 1439.782 1176.338, 1440.292 1180.140 C 1440.990 1185.345, 1443.596 1188.011, 1448.603 1188.642 C 1451.797 1189.045, 1452.980 1188.678, 1455.161 1186.608 C 1456.625 1185.220, 1458.116 1182.747, 1458.475 1181.115 C 1459.266 1177.512, 1456.902 1172.421, 1454.011 1171.503 C 1452.026 1170.874, 1452 1170.094, 1452 1111.933 C 1452 1060.261, 1452.185 1052.987, 1453.500 1052.896 C 1454.325 1052.839, 1457.925 1052.792, 1461.500 1052.792 C 1465.075 1052.792, 1468.900 1052.839, 1470 1052.896 C 1471.961 1052.998, 1472 1053.701, 1472 1089 C 1472 1109.495, 1471.615 1125, 1471.106 1125 C 1470.614 1125, 1468.814 1126.306, 1467.106 1127.901 C 1464.593 1130.248, 1464 1131.598, 1464 1134.967 C 1464 1140.196, 1465.251 1142.561, 1469.058 1144.530 C 1474.569 1147.380, 1482.155 1144.216, 1483.598 1138.466 C 1484.690 1134.114, 1483.149 1129.242, 1479.962 1126.973 L 1477 1124.864 1477 1088.932 L 1477 1053 1479.250 1052.915 C 1484.086 1052.731, 1492.526 1053.193, 1493 1053.667 C 1493.275 1053.942, 1493.542 1065.690, 1493.594 1079.774 L 1493.688 1105.382 1508.344 1119.666 L 1523 1133.949 1523 1151.259 L 1523 1168.569 1519.901 1170.399 C 1516.324 1172.512, 1513.843 1177.602, 1514.688 1181.092 C 1515.009 1182.417, 1516.419 1184.737, 1517.823 1186.250 C 1521.180 1189.869, 1527.642 1190.107, 1531.423 1186.750 C 1535.731 1182.926, 1535.180 1173.658, 1530.461 1170.566 L 1528 1168.954 1528.003 1150.727 L 1528.005 1132.500 1519.186 1124 C 1514.336 1119.325, 1507.585 1112.474, 1504.184 1108.775 L 1498 1102.050 1498 1077.525 C 1498 1050.603, 1497.523 1052.750, 1503.500 1052.750 C 1511.684 1052.750, 1511.262 1052.464, 1517.506 1062.250 C 1526.872 1076.928, 1532.608 1085.853, 1549.483 1112 C 1558.180 1125.475, 1572.517 1147.750, 1581.344 1161.500 C 1590.171 1175.250, 1597.867 1186.831, 1598.446 1187.235 C 1599.635 1188.063, 1714 1188.295, 1714 1187.469 C 1714 1187.177, 1706.224 1175.139, 1696.720 1160.719 C 1687.215 1146.298, 1676.528 1130, 1672.970 1124.500 C 1669.411 1119, 1662.413 1108.425, 1657.418 1101 C 1628.577 1058.132, 1614 1035.999, 1614 1035.077 C 1614 1034.503, 1616.362 1032.850, 1619.250 1031.404 C 1661.239 1010.372, 1690.429 973.359, 1701.195 927.500 C 1702.976 919.911, 1703.352 914.737, 1703.592 894.500 C 1703.924 866.422, 1702.484 855.377, 1695.907 835.564 C 1687.752 810.998, 1677.311 794.028, 1659.568 776.500 C 1647.260 764.341, 1636.755 756.408, 1623.959 749.606 C 1610.594 742.502, 1585.997 733.530, 1574.500 731.564 C 1572.850 731.282, 1569.025 730.568, 1566 729.976 C 1548.277 726.513, 1533.600 726.114, 1421.250 726.049 L 1310 725.983 1310 769.992 M 806.500 766 C 807.495 767.100, 808.535 768, 808.810 768 C 809.085 768, 808.495 767.100, 807.500 766 C 806.505 764.900, 805.465 764, 805.190 764 C 804.915 764, 805.505 764.900, 806.500 766 M 810 769.313 C 810 769.485, 811.462 770.948, 813.250 772.563 L 816.500 775.500 813.563 772.250 C 810.825 769.221, 810 768.540, 810 769.313 M 816 776.346 C 816 776.575, 817.688 778.024, 819.750 779.566 C 822.821 781.862, 823.140 781.957, 821.511 780.092 C 819.616 777.922, 816 775.464, 816 776.346 M 1462.709 827.624 C 1462.319 828.014, 1462 832.758, 1462 838.167 L 1462 848 1458 848 C 1452.877 848, 1450 850.697, 1450 855.500 L 1450 859 1441.250 859.015 C 1431.155 859.033, 1429.253 859.735, 1430.911 862.834 C 1431.893 864.669, 1433.092 864.958, 1440.764 865.211 L 1449.500 865.500 1449.800 871.250 C 1449.965 874.413, 1449.965 877.035, 1449.800 877.078 C 1449.635 877.120, 1445.450 877.374, 1440.500 877.640 C 1430.947 878.156, 1429.554 878.674, 1430.574 881.333 C 1431.109 882.725, 1432.761 883, 1440.607 883 L 1450 883 1450 889.361 L 1450 895.723 1440.921 896.240 C 1431.608 896.771, 1429.284 897.692, 1430.336 900.433 C 1430.824 901.704, 1432.737 902, 1440.469 902 L 1450 902 1450 908.464 L 1450 914.928 1440.250 915.214 C 1431.262 915.478, 1430.500 915.656, 1430.500 917.500 C 1430.500 919.324, 1431.333 919.544, 1439.986 920 L 1449.473 920.500 1450.110 924.438 C 1450.884 929.229, 1454 932, 1458.611 932 C 1462.426 932, 1462.279 931.556, 1462.015 942.291 C 1461.810 950.622, 1462.808 953.124, 1466.002 952.289 C 1467.712 951.842, 1467.962 950.693, 1468.215 942.142 L 1468.500 932.500 1473.905 932.192 C 1477.553 931.985, 1479.580 932.310, 1480.140 933.192 C 1480.596 933.912, 1480.976 938.157, 1480.985 942.628 C 1480.996 948.618, 1481.394 951.082, 1482.500 952 C 1485.447 954.446, 1486.732 951.604, 1486.917 942.239 C 1487.012 937.439, 1487.455 933.145, 1487.902 932.698 C 1488.349 932.251, 1491.141 932.024, 1494.107 932.193 L 1499.500 932.500 1499.790 941.966 C 1500.090 951.747, 1500.920 953.648, 1504.137 951.927 C 1505.622 951.132, 1505.842 949.724, 1505.615 942.474 C 1505.433 936.615, 1505.738 933.632, 1506.594 932.922 C 1507.278 932.354, 1510.237 932.027, 1513.169 932.195 L 1518.500 932.500 1518.150 942.206 L 1517.799 951.911 1520.446 952.576 C 1521.902 952.941, 1523.387 952.946, 1523.747 952.586 C 1524.106 952.227, 1524.423 947.569, 1524.450 942.235 L 1524.500 932.537 1528.438 931.895 C 1533.055 931.143, 1536 928.025, 1536 923.889 C 1536 921.167, 1536.246 920.996, 1540.250 920.932 C 1554.532 920.706, 1557.635 919.818, 1556.300 916.341 C 1555.918 915.344, 1553.234 915, 1545.845 915 L 1535.905 915 1536.202 908.750 L 1536.500 902.500 1546 902 C 1554.787 901.538, 1555.523 901.338, 1555.807 899.342 C 1556.178 896.741, 1552.820 895.739, 1544.761 896.047 C 1535.559 896.399, 1536 896.705, 1536 889.969 C 1536 882.797, 1535.961 882.823, 1547.268 882.636 C 1554.954 882.509, 1555.521 882.353, 1555.815 880.287 C 1556.119 878.148, 1555.801 878.064, 1546.315 877.787 L 1536.500 877.500 1536.193 872.107 C 1536.024 869.141, 1536.249 866.353, 1536.693 865.912 C 1537.137 865.470, 1541.433 865.024, 1546.240 864.919 C 1555.608 864.715, 1558.436 863.435, 1556 860.500 C 1555.055 859.362, 1552.493 859, 1545.378 859 L 1536 859 1536 855.122 C 1536 850.444, 1534.301 848.808, 1528.663 848.056 L 1524.500 847.500 1524 837.500 C 1523.531 828.117, 1523.363 827.481, 1521.286 827.185 C 1519.138 826.880, 1519.063 827.181, 1518.786 837.185 L 1518.500 847.500 1512 847.500 L 1505.500 847.500 1505.215 837.250 C 1504.934 827.140, 1504.897 827, 1502.500 827 C 1500.103 827, 1500.066 827.140, 1499.785 837.250 L 1499.500 847.500 1493.500 847.500 L 1487.500 847.500 1487 838.500 C 1486.454 828.670, 1485.864 827, 1482.941 827 C 1481.620 827, 1480.973 827.719, 1480.914 829.250 C 1480.867 830.487, 1480.755 835.100, 1480.664 839.500 L 1480.500 847.500 1474.500 847.500 L 1468.500 847.500 1468 837.500 C 1467.544 828.388, 1467.319 827.474, 1465.459 827.208 C 1464.336 827.047, 1463.099 827.235, 1462.709 827.624 M 575.283 867.735 C 568.063 885.756, 557.369 912.200, 551.517 926.500 C 529.261 980.892, 519.662 1004.995, 520.089 1005.422 C 520.665 1005.998, 658.831 1006.509, 659.372 1005.937 C 659.600 1005.697, 657.853 1001.154, 655.491 995.842 C 653.130 990.530, 648.879 980.346, 646.046 973.211 C 643.213 966.077, 640.356 959.520, 639.698 958.640 C 638.669 957.266, 635.461 957.028, 616.921 956.949 L 595.342 956.858 591.771 960.429 C 587.964 964.236, 586.167 964.651, 581.119 962.892 C 577.856 961.754, 575 957.663, 575 954.126 C 575 951.231, 579.610 946.245, 582.968 945.507 C 586.311 944.773, 589.533 946.198, 592.645 949.789 L 594.790 952.263 615.623 952.071 C 627.081 951.964, 636.601 951.732, 636.778 951.555 C 636.956 951.377, 635.245 946.793, 632.977 941.366 C 630.709 935.940, 625.994 924.300, 622.498 915.500 C 605.706 873.230, 590.113 835.538, 589.306 835.269 C 588.813 835.104, 582.503 849.714, 575.283 867.735 M 809.655 846.829 C 806.759 850.029, 807.624 853.713, 811.788 855.906 C 817.947 859.150, 822.437 851.580, 817.363 846.506 C 815.315 844.458, 811.662 844.610, 809.655 846.829 M 1457.010 853.994 C 1456.319 854.421, 1456.061 866.419, 1456.237 890.067 L 1456.500 925.500 1492.437 925.763 C 1512.918 925.913, 1528.763 925.637, 1529.279 925.121 C 1530.630 923.770, 1530.240 854.766, 1528.876 853.923 C 1527.489 853.066, 1458.401 853.134, 1457.010 853.994 M 746.200 899.200 C 744.558 900.842, 744.690 904.498, 746.445 905.954 C 748.549 907.700, 752.160 906.834, 753.066 904.365 C 754.624 900.125, 749.289 896.111, 746.200 899.200 M 764.571 899.571 C 761.919 902.224, 762.750 906, 766.273 907.300 C 768.869 908.259, 772.298 904.525, 771.416 901.699 C 770.215 897.849, 767.224 896.919, 764.571 899.571 M 781.571 899.571 C 779.290 901.853, 779.644 904.720, 782.433 906.548 C 785.734 908.711, 789 907.028, 789 903.165 C 789 898.338, 784.825 896.318, 781.571 899.571 M 799.200 899.200 C 796.147 902.253, 798.865 907.441, 803.195 906.827 C 805.004 906.570, 805.570 905.770, 805.824 903.105 C 806.261 898.532, 802.239 896.161, 799.200 899.200 M 1029.374 899.803 C 1028.205 899.970, 1026.298 901.118, 1025.136 902.355 C 1023.051 904.575, 1023.023 905.213, 1022.889 953.138 C 1022.746 1004.722, 1022.788 1005.208, 1027.544 1007.017 C 1028.976 1007.561, 1049.889 1007.701, 1078.733 1007.360 C 1122.286 1006.844, 1127.686 1006.605, 1129.240 1005.124 C 1130.845 1003.593, 1130.982 999.674, 1131.019 954.222 C 1131.045 922.319, 1130.697 904.302, 1130.031 903.057 C 1129.465 902, 1127.989 900.767, 1126.751 900.318 C 1124.701 899.573, 1034.335 899.096, 1029.374 899.803 M 1041.400 914.428 C 1039.694 915.170, 1038.007 916.539, 1037.650 917.471 C 1036.819 919.634, 1036.793 986.296, 1037.621 988.455 C 1039.245 992.687, 1042.400 993.057, 1075.750 992.932 C 1093.212 992.866, 1108.988 992.574, 1110.807 992.284 C 1117.378 991.235, 1117.500 990.527, 1117.500 953.545 C 1117.500 935.370, 1117.173 919.340, 1116.774 917.921 C 1115.464 913.268, 1113.300 912.997, 1077.703 913.039 C 1052.101 913.069, 1043.790 913.387, 1041.400 914.428 M 1043.204 919.196 C 1042.314 920.086, 1042 928.958, 1042 953.165 C 1042 984.535, 1042.082 985.974, 1043.934 986.965 C 1045.152 987.617, 1057.721 988, 1077.863 988 C 1103.822 988, 1110.119 987.738, 1111.245 986.612 C 1112.379 985.478, 1112.606 979.248, 1112.482 952.611 C 1112.399 934.674, 1112.142 919.809, 1111.911 919.577 C 1111.679 919.346, 1096.396 918.894, 1077.949 918.574 C 1052.481 918.133, 1044.118 918.282, 1043.204 919.196 M 960.200 927.200 C 959.540 927.860, 959 929.795, 959 931.500 C 959 935.184, 960.552 937, 963.700 937 C 966.297 937, 970 933.768, 970 931.500 C 970 927.495, 962.984 924.416, 960.200 927.200 M 936.817 956.710 C 936.140 960.229, 937.973 978.841, 939.919 988.205 C 944.150 1008.560, 955.160 1031.711, 968.831 1049 C 982.261 1065.984, 1007.475 1083.570, 1028.935 1090.921 C 1041.834 1095.340, 1065.559 1099.657, 1072.500 1098.849 L 1075.500 1098.500 1075.160 1067.890 C 1074.973 1051.054, 1074.523 1032.154, 1074.160 1025.890 L 1073.500 1014.500 1066.750 1014.204 L 1060 1013.909 1060 1022.395 C 1060 1027.227, 1059.549 1031.161, 1058.953 1031.529 C 1058.314 1031.924, 1057.972 1036.259, 1058.074 1042.674 L 1058.242 1053.172 1061.566 1056.196 C 1065.642 1059.905, 1066.592 1063.648, 1064.641 1068.316 C 1061.837 1075.029, 1053.594 1076.468, 1048.784 1071.084 C 1044.681 1066.492, 1044.956 1061.844, 1049.604 1057.196 L 1053.209 1053.591 1053.070 1043.107 C 1052.995 1037.341, 1052.451 1032.043, 1051.862 1031.334 C 1051.230 1030.572, 1050.936 1026.862, 1051.146 1022.272 L 1051.500 1014.500 1045 1014.500 L 1038.500 1014.500 1038.203 1022.497 C 1038.040 1026.895, 1037.478 1030.922, 1036.953 1031.447 C 1036.429 1031.971, 1036 1035.302, 1036 1038.849 L 1036 1045.299 1025.293 1056.164 C 1019.405 1062.140, 1014.117 1066.873, 1013.543 1066.682 C 1010.382 1065.629, 1012.371 1062.311, 1021.554 1053.320 L 1031.285 1043.793 1030.642 1034.743 C 1030.289 1029.765, 1030 1023.304, 1030 1020.385 C 1030 1015.086, 1029.994 1015.075, 1026.202 1014.054 C 1021.421 1012.767, 1017.291 1008.517, 1016.513 1004.084 C 1016.183 1002.205, 1015.714 1000.346, 1015.470 999.951 C 1015.226 999.557, 1011.145 999.310, 1006.400 999.403 C 1000.165 999.525, 997.636 999.216, 997.280 998.286 C 996.665 996.685, 988.727 996.564, 985.684 998.110 C 984.483 998.720, 979.153 1003.509, 973.840 1008.751 C 966.840 1015.659, 963.719 1018.106, 962.507 1017.641 C 961.587 1017.288, 960.984 1016.611, 961.167 1016.138 C 961.350 1015.664, 966.156 1010.377, 971.846 1004.388 L 982.192 993.500 990.846 992.753 C 995.606 992.343, 1000.625 991.825, 1002 991.602 C 1003.375 991.380, 1007.109 991.154, 1010.298 991.099 L 1016.095 991 1015.798 984.750 L 1015.500 978.500 1007.500 978.239 C 1003.100 978.096, 998.600 977.540, 997.500 977.004 C 996.400 976.469, 992.580 975.911, 989.010 975.765 C 983.750 975.550, 982.457 975.168, 982.187 973.750 C 981.893 972.209, 982.751 972, 989.368 972 C 993.501 972, 997.114 971.625, 997.397 971.167 C 997.680 970.710, 1000.744 970.463, 1004.206 970.619 C 1007.667 970.775, 1011.758 970.659, 1013.295 970.362 C 1016.036 969.832, 1016.085 969.700, 1015.795 963.661 L 1015.500 957.500 1007.006 957.206 C 1002.334 957.044, 998.081 956.481, 997.556 955.956 C 996.991 955.391, 984.437 955, 966.873 955 C 939.619 955, 937.119 955.142, 936.817 956.710 M 777.687 956.764 L 746.874 957.029 747.563 959.264 C 748.648 962.789, 760.246 989.612, 771.349 1014.274 C 775.007 1022.400, 778 1029.432, 778 1029.901 C 778 1032.683, 781.580 1033.034, 810.622 1033.102 C 827.055 1033.141, 840.790 1033.133, 841.144 1033.086 C 841.498 1033.039, 840.752 1029.737, 839.487 1025.750 C 834.623 1010.420, 830.260 983.656, 829.747 966 L 829.500 957.500 819 957 C 813.225 956.725, 794.634 956.619, 777.687 956.764 M 981 998.059 C 981 998.641, 981.450 998.840, 982 998.500 C 982.550 998.160, 983 997.684, 983 997.441 C 983 997.198, 982.550 997, 982 997 C 981.450 997, 981 997.477, 981 998.059 M 1052.957 1059.027 C 1052.208 1059.489, 1051.167 1059.603, 1050.643 1059.280 C 1050.119 1058.956, 1049.972 1059.146, 1050.317 1059.703 C 1050.661 1060.260, 1050.567 1062.024, 1050.108 1063.624 C 1049.155 1066.947, 1050.318 1068.540, 1054.455 1069.578 C 1059.592 1070.867, 1063.226 1064.222, 1059.250 1060.807 C 1056.775 1058.681, 1054.539 1058.049, 1052.957 1059.027 M 573.655 1110.829 C 570.375 1114.453, 572.600 1118.416, 577.582 1117.822 C 581.346 1117.373, 582.649 1113.649, 579.976 1110.976 C 577.517 1108.517, 575.784 1108.476, 573.655 1110.829 M 595.511 1110.368 C 593.244 1112.026, 593.828 1117.355, 596.329 1117.830 C 599.999 1118.526, 603 1117.075, 603 1114.603 C 603 1110.838, 598.415 1108.245, 595.511 1110.368 M 1470 1131 C 1466.056 1134.944, 1468.644 1141, 1474.272 1141 C 1476.891 1141, 1480 1137.870, 1480 1135.232 C 1480 1133.408, 1475.434 1129, 1473.545 1129 C 1472.695 1129, 1471.100 1129.900, 1470 1131 M 502.189 1133.039 C 500.985 1134.160, 500 1135.928, 500 1136.968 C 500 1138.758, 502.358 1141.912, 503.821 1142.077 C 504.195 1142.119, 505.252 1142.299, 506.170 1142.476 C 508.915 1143.008, 512 1140.162, 512 1137.098 C 512 1131.608, 506.269 1129.237, 502.189 1133.039 M 637.751 1156.689 C 635.476 1157.284, 634.517 1161.228, 635.981 1163.965 C 637.753 1167.275, 643.136 1166.438, 644.462 1162.645 C 645.320 1160.192, 645.131 1159.524, 643.119 1157.895 C 641.832 1156.853, 640.491 1156.052, 640.139 1156.116 C 639.788 1156.180, 638.713 1156.438, 637.751 1156.689 M 658.245 1157.155 C 656.828 1158.572, 656.619 1162.850, 657.870 1164.824 C 659.025 1166.646, 665.034 1165.923, 666.361 1163.803 C 668.198 1160.868, 665.992 1156.552, 662.477 1156.205 C 660.834 1156.043, 658.930 1156.470, 658.245 1157.155 M 1520.169 1175.512 C 1518.194 1178.023, 1518.231 1181.148, 1520.267 1183.750 C 1521.439 1185.248, 1527.621 1185.423, 1528.510 1183.984 C 1528.856 1183.425, 1529.494 1183.187, 1529.928 1183.456 C 1531.386 1184.356, 1529.923 1176.572, 1528.297 1174.775 C 1526.017 1172.256, 1522.478 1172.577, 1520.169 1175.512 M 602 1268.124 C 583.175 1270.063, 567.903 1280.029, 559.787 1295.672 C 538.362 1336.966, 574.497 1381.364, 621.500 1371.496 C 630.618 1369.581, 641.486 1364.164, 646.461 1359.053 L 650.422 1354.984 644.461 1348.919 C 635.942 1340.252, 635.668 1340.164, 630.816 1344.547 C 616.294 1357.667, 592.165 1354.468, 582.328 1338.120 C 574.344 1324.853, 576.181 1307.484, 586.720 1296.593 C 591.942 1291.196, 597.919 1288.754, 607.267 1288.201 C 616.688 1287.643, 622.281 1289.421, 629.250 1295.188 C 632.126 1297.568, 634.492 1298.827, 635.250 1298.380 C 638.514 1296.453, 649 1286.608, 649 1285.471 C 649 1283.500, 639.622 1275.513, 634.457 1273.085 C 624.873 1268.580, 613.885 1266.900, 602 1268.124 M 704 1269.536 C 693.989 1272.295, 687.849 1275.969, 679.978 1283.911 C 668.189 1295.804, 664.348 1305.980, 665.270 1322.868 C 665.913 1334.636, 668.339 1341.918, 674.484 1350.530 C 680.053 1358.334, 685.618 1362.991, 694.144 1366.980 C 711.304 1375.010, 730.747 1374.709, 747.701 1366.151 C 766.807 1356.506, 777.366 1334.428, 774.026 1311.108 C 771.517 1293.594, 758.833 1278.214, 740.830 1270.855 C 733.774 1267.972, 712.447 1267.207, 704 1269.536 M 364.978 1273.551 C 363.890 1276.089, 363 1278.339, 363 1278.552 C 363 1278.764, 358.234 1289.639, 352.409 1302.719 C 343.545 1322.623, 324.959 1365.378, 323.269 1369.750 C 322.899 1370.707, 325.595 1371, 334.784 1371 L 346.782 1371 349.641 1364.309 C 351.213 1360.629, 353.400 1355.791, 354.500 1353.559 L 356.500 1349.500 379.346 1349.500 L 402.193 1349.500 406.858 1360 L 411.524 1370.500 423.728 1370.781 L 435.933 1371.061 434.571 1367.281 C 432.872 1362.564, 423.681 1341.616, 417.775 1329 C 415.330 1323.775, 412.066 1316.575, 410.524 1313 C 406.244 1303.080, 395.303 1279.057, 392.761 1274 L 390.500 1269.500 378.728 1269.218 L 366.956 1268.936 364.978 1273.551 M 455.900 1269.250 C 455.845 1269.388, 455.581 1292.338, 455.315 1320.250 L 454.829 1371 466.415 1371 C 474.997 1371, 478.010 1370.676, 478.037 1369.750 C 478.070 1368.608, 478.055 1298.388, 478.016 1277.750 L 478 1269 467 1269 C 460.950 1269, 455.955 1269.112, 455.900 1269.250 M 801 1320.077 L 801 1371.154 831.250 1370.767 C 858.397 1370.419, 862.074 1370.174, 867.097 1368.375 C 875.286 1365.441, 880.966 1361.817, 887.299 1355.483 C 896.484 1346.299, 901 1334.386, 901 1319.342 C 901 1303.305, 894.961 1290.582, 882.737 1280.862 C 870.197 1270.890, 861.221 1269, 826.412 1269 L 801 1269 801 1320.077 M 927 1320.004 L 927 1371 965.500 1371 C 995.576 1371, 1004.024 1370.726, 1004.108 1369.750 C 1004.524 1364.958, 1003.661 1353.409, 1002.850 1352.908 C 1002.306 1352.571, 990.353 1352.216, 976.289 1352.119 C 962.224 1352.022, 950.443 1351.773, 950.109 1351.565 C 949.774 1351.357, 949.500 1346.307, 949.500 1340.343 L 949.500 1329.500 973 1329 L 996.500 1328.500 996.500 1319.500 L 996.500 1310.500 973.320 1310.232 L 950.141 1309.963 949.820 1301.232 C 949.644 1296.429, 949.648 1291.458, 949.828 1290.184 L 950.156 1287.868 975.328 1288.008 C 989.173 1288.085, 1001.063 1288.115, 1001.750 1288.074 C 1002.657 1288.020, 1003 1285.403, 1003 1278.545 L 1003 1269.090 965 1269.049 L 927 1269.008 927 1320.004 M 1082.290 1270.281 C 1081.855 1270.952, 1081.500 1293.887, 1081.500 1321.249 L 1081.500 1370.998 1092.750 1370.999 L 1104 1371 1104 1356.500 L 1104 1342 1114.449 1342 L 1124.898 1342 1127.699 1345.666 C 1129.240 1347.682, 1133.900 1354.315, 1138.056 1360.406 L 1145.612 1371.481 1157.556 1371.151 C 1164.125 1370.970, 1169.592 1370.732, 1169.705 1370.623 C 1169.818 1370.513, 1165.852 1364.366, 1160.892 1356.962 C 1147.586 1337.100, 1148.126 1338.697, 1153.469 1335.021 C 1158.398 1331.630, 1161.566 1327.816, 1165.115 1321 C 1167.152 1317.087, 1167.460 1315.065, 1167.479 1305.500 C 1167.498 1295.409, 1167.273 1294.069, 1164.750 1289.283 C 1159.310 1278.964, 1150.666 1272.988, 1137.551 1270.478 C 1127.909 1268.634, 1083.460 1268.475, 1082.290 1270.281 M 1195 1320 L 1195 1371 1234 1371 L 1273 1371 1273 1362.107 C 1273 1354.957, 1272.693 1353.096, 1271.434 1352.613 C 1270.572 1352.282, 1258.361 1352.023, 1244.298 1352.037 C 1230.235 1352.051, 1218.534 1351.867, 1218.296 1351.629 C 1217.706 1351.039, 1217.711 1329.956, 1218.301 1329.366 C 1218.560 1329.107, 1228.916 1328.808, 1241.315 1328.703 L 1263.859 1328.510 1264.180 1321.505 C 1264.356 1317.652, 1264.356 1313.487, 1264.180 1312.250 L 1263.861 1310 1240.897 1310 L 1217.932 1310 1218.216 1299.250 L 1218.500 1288.500 1244.750 1288.233 L 1271 1287.967 1271 1278.483 L 1271 1269 1233 1269 L 1195 1269 1195 1320 M 1286 1269.699 C 1286 1270.440, 1288.875 1277.353, 1307.957 1322.500 C 1313.304 1335.150, 1320.075 1351.237, 1323.003 1358.250 L 1328.328 1371 1340.025 1371 L 1351.722 1371 1353.793 1365.750 C 1354.932 1362.862, 1358.389 1354.650, 1361.476 1347.500 C 1364.563 1340.350, 1367.949 1332.475, 1369 1330 C 1372.694 1321.302, 1386.334 1289.412, 1389.744 1281.500 C 1391.641 1277.100, 1393.574 1272.525, 1394.040 1271.334 C 1394.881 1269.182, 1394.808 1269.169, 1383.215 1269.334 L 1371.543 1269.500 1360.764 1293.985 C 1354.836 1307.452, 1348.147 1322.977, 1345.901 1328.485 C 1343.654 1333.993, 1341.474 1339.112, 1341.056 1339.861 C 1340.256 1341.295, 1336.713 1333.347, 1323.510 1300.500 C 1319.530 1290.600, 1314.910 1279.505, 1313.243 1275.845 L 1310.211 1269.189 1298.106 1269.070 C 1291.448 1269.004, 1286 1269.287, 1286 1269.699 M 1413.121 1320 L 1412.883 1371 1424.441 1371 L 1436 1371 1436 1320 L 1436 1269 1424.679 1269 L 1413.359 1269 1413.121 1320 M 1468 1320.051 L 1468 1371 1507 1371 L 1546 1371 1546 1361.500 L 1546 1352 1518.500 1352 L 1491 1352 1491 1340.519 L 1491 1329.038 1513.750 1328.769 L 1536.500 1328.500 1536.500 1319.500 L 1536.500 1310.500 1513.716 1310.231 L 1490.933 1309.962 1491.216 1299.231 L 1491.500 1288.500 1517.750 1288.233 L 1544 1287.967 1544 1278.481 L 1544 1268.994 1506 1269.048 L 1468 1269.102 1468 1320.051 M 1563.599 1271.718 C 1564.647 1276.186, 1573.817 1305.030, 1585.064 1339.240 L 1595.500 1370.979 1608.211 1370.990 L 1620.923 1371 1622.472 1365.750 C 1627.698 1348.043, 1642.616 1304.039, 1643.313 1304.271 C 1643.773 1304.424, 1646.634 1312.188, 1649.671 1321.525 C 1652.708 1330.861, 1657.545 1345.700, 1660.420 1354.500 L 1665.646 1370.500 1678.236 1370.779 L 1690.826 1371.058 1691.838 1367.779 C 1692.394 1365.976, 1695.853 1355.275, 1699.525 1344 C 1703.196 1332.725, 1707.234 1320.125, 1708.497 1316 C 1709.761 1311.875, 1713.541 1300.020, 1716.898 1289.657 C 1720.254 1279.293, 1723 1270.405, 1723 1269.907 C 1723 1269.408, 1718.040 1269, 1711.979 1269 C 1701.486 1269, 1700.913 1269.108, 1700.044 1271.250 C 1699.311 1273.058, 1688.689 1306.563, 1680.310 1333.500 C 1679.454 1336.250, 1678.408 1338.879, 1677.985 1339.342 C 1677.562 1339.805, 1676.233 1336.880, 1675.031 1332.842 C 1673.830 1328.804, 1668.696 1312.900, 1663.622 1297.500 L 1654.397 1269.500 1643.777 1269.262 L 1633.158 1269.024 1628.882 1281.762 C 1626.530 1288.768, 1621.429 1304.099, 1617.546 1315.830 C 1613.663 1327.562, 1610.103 1337.237, 1609.635 1337.330 C 1609.168 1337.424, 1605.251 1326.700, 1600.931 1313.500 C 1596.611 1300.300, 1591.548 1285, 1589.679 1279.500 L 1586.280 1269.500 1574.613 1269.218 L 1562.946 1268.936 1563.599 1271.718 M 711.500 1288.722 C 703.128 1290.775, 695.642 1296.958, 691.183 1305.500 C 688.916 1309.844, 688.569 1311.747, 688.537 1320 C 688.507 1327.649, 688.917 1330.401, 690.637 1334.122 C 693.707 1340.760, 699.323 1346.521, 705.839 1349.715 C 710.687 1352.091, 712.721 1352.488, 720 1352.477 C 730.014 1352.463, 735.388 1350.324, 741.879 1343.767 C 748.630 1336.949, 750.408 1332.125, 750.458 1320.500 C 750.496 1311.519, 750.214 1309.918, 747.694 1304.786 C 744.337 1297.949, 737.637 1291.746, 731.266 1289.575 C 726.916 1288.093, 715.990 1287.621, 711.500 1288.722 M 824.266 1288.814 C 823.322 1289.414, 823.087 1296.934, 823.266 1320.799 L 823.500 1352 836.540 1352 C 860.071 1352, 868.549 1347.917, 874.891 1333.531 C 877.471 1327.677, 877.941 1313.940, 875.774 1307.729 C 872.460 1298.236, 863.515 1291.160, 852.114 1289.014 C 845.783 1287.822, 826.051 1287.681, 824.266 1288.814 M 1104 1305.437 L 1104 1323.183 1118.750 1322.842 C 1135.213 1322.460, 1137.622 1321.684, 1141.955 1315.361 C 1145.107 1310.761, 1145.352 1302.029, 1142.470 1296.998 C 1139.006 1290.950, 1133.507 1289.025, 1117.642 1288.308 L 1104 1287.692 1104 1305.437 M 376.657 1297.750 C 368.382 1317.647, 364.009 1328.707, 364.005 1329.750 C 364.001 1330.696, 367.759 1331, 379.475 1331 L 394.950 1331 394.086 1328.750 C 393.610 1327.513, 391.340 1322.225, 389.041 1317 C 386.743 1311.775, 383.656 1304.470, 382.181 1300.767 C 380.706 1297.064, 379.211 1294.026, 378.859 1294.017 C 378.506 1294.008, 377.515 1295.688, 376.657 1297.750" stroke="none" fill="#F15A24" fill-rule="evenodd"/>
</svg>