<svg xmlns="http://www.w3.org/2000/svg" width="512" height="512" viewBox="0 0 512 512" role="img" aria-label="FARM Review">
  <defs>
    <linearGradient id="fr-bg" x1="0" y1="0" x2="1" y2="1">
      <stop offset="0" stop-color="#0b1220" />
      <stop offset="1" stop-color="#05080f" />
    </linearGradient>

    <linearGradient id="fr-accent" x1="64" y1="64" x2="448" y2="448" gradientUnits="userSpaceOnUse">
      <stop offset="0" stop-color="#00ff9d" />
      <stop offset="0.5" stop-color="#00d5ff" />
      <stop offset="1" stop-color="#ff00ff" />
    </linearGradient>

    <filter id="fr-glow" x="-50%" y="-50%" width="200%" height="200%">
      <feDropShadow dx="0" dy="0" stdDeviation="6" flood-color="#00ff9d" flood-opacity="0.25" />
      <feDropShadow dx="0" dy="0" stdDeviation="12" flood-color="#ff00ff" flood-opacity="0.14" />
    </filter>
  </defs>

  <path
    d="M64 136 L136 64 H376 L448 136 V376 L376 448 H136 L64 376 Z"
    fill="url(#fr-bg)"
    stroke="url(#fr-accent)"
    stroke-width="18"
    stroke-linejoin="round"
    filter="url(#fr-glow)"
  />

  <g
    fill="none"
    stroke="url(#fr-accent)"
    stroke-width="6"
    stroke-linecap="round"
    stroke-linejoin="round"
    opacity="0.18"
  >
    <path d="M136 144 H186 Q206 144 206 164 V206" />
    <circle cx="206" cy="206" r="6" />

    <path d="M376 144 H326 Q306 144 306 164 V186" />
    <circle cx="306" cy="186" r="6" />

    <path d="M136 368 H186 Q206 368 206 348 V326" />
    <circle cx="206" cy="326" r="6" />

    <path d="M376 368 H326 Q306 368 306 348 V306" />
    <circle cx="306" cy="306" r="6" />
  </g>

  <g
    fill="none"
    stroke="url(#fr-accent)"
    stroke-width="40"
    stroke-linecap="round"
    stroke-linejoin="round"
    filter="url(#fr-glow)"
  >
    <path d="M184 336 V176" />
    <path d="M184 176 H276" />
    <path d="M184 256 H252" />

    <path d="M300 336 V176" />
    <path d="M300 176 H336 Q360 176 360 200 V224 Q360 248 336 248 H300" />
    <path d="M320 256 L360 336" />
  </g>
</svg>

